<?xml version="1.0" encoding="utf-8"?>
<!-- Generator: Adobe Illustrator 28.1.0, SVG Export Plug-In . SVG Version: 6.00 Build 0)  -->
<svg version="1.1" id="Calque_1" xmlns="http://www.w3.org/2000/svg" xmlns:xlink="http://www.w3.org/1999/xlink" x="0px" y="0px"
	 viewBox="0 0 602 595.3" style="enable-background:new 0 0 602 595.3;" xml:space="preserve">
<style type="text/css">
	.st0{fill:#0C0B0B;}
</style>
<path class="st0" d="M30.4,295.2c25,0,49.9,0,74.9,0c34.1,0,68.1,0.1,102.2,0c58.6-0.3,91.9-33.7,91.9-91.9c0-52.9,0-105.8,0-158.7
	c0-6.8,0-13.6,0-20.3c1.2,0,2.4,0,3.6,0c0,41,0,82,0,123c0,20-0.1,40,0,59.9c0.4,52.8,33.9,87.2,86.9,87.9
	c55.2,0.7,110.4,0.2,165.6,0.2c5.8,0,11.5,0,17.2,2.9c-36.3,0-72.6,0-108.9,0c-27,0-54.1-0.7-81,0.4c-47.4,1.9-79.6,35.8-79.8,83.4
	c-0.3,56.4-0.1,112.8-0.1,169.3c0,5.8,0,11.6-3.5,17.3c0-5.4,0-10.7,0-16.1c0-55.2,0.1-110.5-0.2-165.7
	c-0.2-54.9-32.9-88.1-87.7-88.4c-60.4-0.3-120.8-0.1-181.2-0.1C30.4,297.1,30.4,296.1,30.4,295.2z"/>
</svg>
