<?xml version="1.0" encoding="utf-8"?>
<!-- Generator: Adobe Illustrator 28.1.0, SVG Export Plug-In . SVG Version: 6.00 Build 0)  -->
<svg version="1.1" id="Calque_1" xmlns="http://www.w3.org/2000/svg" xmlns:xlink="http://www.w3.org/1999/xlink" x="0px" y="0px"
	 viewBox="0 0 445.9 265.3" style="enable-background:new 0 0 445.9 265.3;" xml:space="preserve">
<g>
	<g>
		<path d="M102.2,196.4c-8.2,0-14.9-2.2-20.1-6.5c-5.3-4.4-9-10.7-11.2-19.1l16.9-6.5c1.3,5.3,3.1,9.3,5.4,12.1
			c2.2,2.8,5.1,4.2,8.7,4.2c2.7,0,4.7-0.7,6-2s2-3.2,2-5.5c0-2.7-0.8-5.1-2.4-7.3s-4.4-4.9-8.3-8.1l-11.7-10.1
			c-4.2-3.7-7.7-7.5-10.3-11.3c-2.6-3.9-4-8.7-4-14.6c0-5.3,1.2-9.8,3.6-13.5s5.7-6.7,9.9-8.7c4.2-2.1,8.9-3.1,14-3.1
			c8,0,14.5,2.3,19.3,7c4.8,4.6,7.9,10.7,9.4,18.2L114,128c-0.6-2.7-1.4-5.2-2.4-7.5c-1.1-2.3-2.4-4.2-4.1-5.6
			c-1.7-1.5-3.7-2.2-6-2.2s-4.2,0.7-5.6,2.2s-2.1,3.3-2.1,5.5c0,1.9,0.8,3.9,2.4,5.9s3.9,4.3,7,6.9l11.9,10.7c2.6,2.2,5,4.6,7.4,7.2
			c2.3,2.6,4.3,5.4,5.9,8.6c1.6,3.2,2.3,6.8,2.3,11c0,5.6-1.3,10.3-3.8,14.1s-5.9,6.7-10.2,8.6C112.3,195.4,107.5,196.4,102.2,196.4
			z"/>
		<path d="M172.3,196.4c-7,0-12.9-1.3-17.4-3.9c-4.6-2.6-8-6.5-10.3-11.5s-3.4-11.1-3.4-18.3v-32.6c0-7.2,1.1-13.2,3.4-18.3
			c2.3-5,5.7-8.9,10.3-11.5s10.4-3.9,17.4-3.9s12.9,1.3,17.5,3.9s8.1,6.5,10.4,11.5s3.4,11.1,3.4,18.3v32.5c0,7.2-1.1,13.2-3.4,18.3
			c-2.3,5-5.8,8.9-10.4,11.5C185.2,194.9,179.4,196.4,172.3,196.4z M172.5,180.6c2.6,0,4.5-0.7,5.7-2.2s2-3.4,2.3-6
			c0.3-2.5,0.5-5.3,0.5-8.3v-35.5c0-3-0.2-5.8-0.5-8.2c-0.3-2.5-1.1-4.4-2.3-6c-1.2-1.5-3.1-2.3-5.7-2.3c-2.6,0-4.5,0.8-5.7,2.3
			s-2,3.5-2.4,6s-0.6,5.2-0.6,8.2v35.6c0,3,0.2,5.8,0.6,8.3c0.4,2.5,1.2,4.5,2.4,6C168,179.9,169.9,180.6,172.5,180.6z"/>
		<path d="M220.8,194.9V59h22.6v135.8L220.8,194.9L220.8,194.9z"/>
		<path d="M289.7,195.9c-6.1,0-11-1-14.5-3s-6-4.9-7.5-8.7s-2.2-8.3-2.2-13.6V113h-9.7V97.8h9.7v-29h23v29h14.8V113h-14.8v55.7
			c0,3.4,0.7,5.7,2.2,7.1c1.5,1.4,3.6,2.1,6.5,2.1c1.2,0,2.4-0.1,3.6-0.2c1.2-0.1,2.3-0.2,3.4-0.3v17.4c-1.9,0.2-4.1,0.5-6.6,0.8
			C295.2,195.9,292.5,195.9,289.7,195.9z"/>
		<g>
			<path d="M333,196.4c-4.4,0-8.1-1.1-11.3-3.4c-3.2-2.3-5.6-5.2-7.3-8.7c-1.7-3.5-2.5-7.2-2.5-11c0-6,1.1-11.1,3.4-15.3
				c2.2-4.1,5.2-7.6,9-10.4c3.7-2.8,7.9-5.2,12.6-7.3c4.6-2.1,9.4-3.9,14.3-5.6v-8.4c0-2.8-0.2-5.1-0.6-7s-1.1-3.4-2.3-4.4
				c-1.1-1-2.7-1.5-4.9-1.5c-2,0-3.6,0.4-4.8,1.3c-1.2,0.9-2,2.2-2.5,3.8s-0.8,3.5-0.8,5.6L335,130l-21.8-0.8
				c0.4-11.2,3.2-19.4,8.4-24.7c5.1-5.3,13-8,23.6-8c9.7,0,16.8,2.7,21.3,8c4.5,5.4,6.7,12.6,6.7,21.8v44.8c0,3.6,0.1,6.8,0.3,9.7
				c0.2,2.9,0.4,5.5,0.7,7.9c0.3,2.3,0.5,4.4,0.8,6.2h-20.6c-0.3-2.2-0.7-4.8-1.2-7.6c-0.4-2.8-0.8-4.9-1-6.3
				c-1.1,3.9-3.2,7.5-6.4,10.6C342.6,194.8,338.4,196.4,333,196.4z M325.4,85.5v-7.1H365v7.1H325.4z M341.4,179.4
				c1.5,0,2.8-0.4,4-1.1s2.3-1.6,3.4-2.6c1-1,1.8-1.9,2.3-2.7v-27c-2.6,1.5-4.9,2.9-7.1,4.4s-4.1,3-5.6,4.8
				c-1.6,1.7-2.8,3.6-3.7,5.6c-0.9,2-1.3,4.4-1.3,7c0,3.6,0.7,6.4,2.1,8.5C336.8,178.4,338.8,179.4,341.4,179.4z"/>
		</g>
	</g>
</g>
</svg>
