<?xml version="1.0" encoding="utf-8"?>
<!-- Generator: Adobe Illustrator 28.1.0, SVG Export Plug-In . SVG Version: 6.00 Build 0)  -->
<svg version="1.1" id="Calque_1" xmlns="http://www.w3.org/2000/svg" xmlns:xlink="http://www.w3.org/1999/xlink" x="0px" y="0px"
	 viewBox="0 0 748.9 147.3" style="enable-background:new 0 0 748.9 147.3;" xml:space="preserve">
<g>
	<g>
		<path d="M34.8,144.8c-8.2,0-14.9-2.2-20.1-6.5c-5.3-4.4-9-10.7-11.2-19.1l16.9-6.5c1.3,5.3,3.1,9.3,5.4,12.1
			c2.2,2.8,5.1,4.2,8.7,4.2c2.7,0,4.7-0.7,6-2c1.3-1.3,2-3.2,2-5.5c0-2.7-0.8-5.1-2.4-7.3c-1.6-2.2-4.4-4.9-8.3-8.1L20.1,96
			c-4.2-3.7-7.7-7.5-10.3-11.3C7.2,80.8,5.8,76,5.8,70.1c0-5.3,1.2-9.8,3.6-13.5c2.4-3.7,5.7-6.7,9.9-8.7c4.2-2.1,8.9-3.1,14-3.1
			c8,0,14.5,2.3,19.3,7c4.8,4.6,7.9,10.7,9.4,18.2l-15.4,6.4c-0.6-2.7-1.4-5.2-2.4-7.5c-1.1-2.3-2.4-4.2-4.1-5.6
			c-1.7-1.5-3.7-2.2-6-2.2s-4.2,0.7-5.6,2.2c-1.4,1.5-2.1,3.3-2.1,5.5c0,1.9,0.8,3.9,2.4,5.9c1.6,2,3.9,4.3,7,6.9l11.9,10.7
			c2.6,2.2,5,4.6,7.4,7.2c2.3,2.6,4.3,5.4,5.9,8.6c1.6,3.2,2.3,6.8,2.3,11c0,5.6-1.3,10.3-3.8,14.1c-2.5,3.8-5.9,6.7-10.2,8.6
			C44.9,143.8,40.1,144.8,34.8,144.8z"/>
		<path d="M104.9,144.8c-7,0-12.9-1.3-17.4-3.9c-4.6-2.6-8-6.5-10.3-11.5c-2.3-5-3.4-11.1-3.4-18.3V78.5c0-7.2,1.1-13.2,3.4-18.3
			c2.3-5,5.7-8.9,10.3-11.5c4.6-2.6,10.4-3.9,17.4-3.9c7,0,12.9,1.3,17.5,3.9c4.6,2.6,8.1,6.5,10.4,11.5c2.3,5,3.4,11.1,3.4,18.3
			v32.5c0,7.2-1.1,13.2-3.4,18.3c-2.3,5-5.8,8.9-10.4,11.5C117.8,143.4,112,144.8,104.9,144.8z M105.1,129c2.6,0,4.5-0.7,5.7-2.2
			c1.2-1.5,2-3.4,2.3-6c0.3-2.5,0.5-5.3,0.5-8.3V77c0-3-0.2-5.8-0.5-8.2c-0.3-2.5-1.1-4.4-2.3-6c-1.2-1.5-3.1-2.3-5.7-2.3
			c-2.6,0-4.5,0.8-5.7,2.3c-1.2,1.5-2,3.5-2.4,6c-0.4,2.5-0.6,5.2-0.6,8.2v35.6c0,3,0.2,5.8,0.6,8.3c0.4,2.5,1.2,4.5,2.4,6
			C100.6,128.3,102.5,129,105.1,129z"/>
		<path d="M153.4,143.3V7.4H176v135.8H153.4z"/>
		<path d="M222.3,144.4c-6.1,0-11-1-14.5-3c-3.5-2-6-4.9-7.5-8.7c-1.5-3.8-2.2-8.3-2.2-13.6V61.4h-9.7V46.3h9.7v-29h23v29h14.8v15.1
			h-14.8v55.7c0,3.4,0.7,5.7,2.2,7.1c1.5,1.4,3.6,2.1,6.5,2.1c1.2,0,2.4-0.1,3.6-0.2c1.2-0.1,2.3-0.2,3.4-0.3v17.4
			c-1.9,0.2-4.1,0.5-6.6,0.8C227.8,144.3,225.1,144.4,222.3,144.4z"/>
		<path d="M389.5,144.8c-8.2,0-14.9-2.2-20.1-6.5c-5.3-4.4-9-10.7-11.2-19.1l16.9-6.5c1.3,5.3,3.1,9.3,5.4,12.1
			c2.2,2.8,5.1,4.2,8.7,4.2c2.7,0,4.7-0.7,6-2c1.3-1.3,2-3.2,2-5.5c0-2.7-0.8-5.1-2.4-7.3c-1.6-2.2-4.4-4.9-8.3-8.1L374.7,96
			c-4.2-3.7-7.7-7.5-10.3-11.3c-2.6-3.9-3.9-8.7-3.9-14.5c0-5.3,1.2-9.8,3.6-13.5c2.4-3.7,5.7-6.7,9.9-8.7c4.2-2.1,8.9-3.1,14-3.1
			c8,0,14.5,2.3,19.3,7c4.8,4.6,7.9,10.7,9.4,18.2l-15.4,6.4c-0.6-2.7-1.4-5.2-2.4-7.5c-1.1-2.3-2.4-4.2-4.1-5.6
			c-1.7-1.5-3.7-2.2-6-2.2c-2.3,0-4.2,0.7-5.6,2.2c-1.4,1.5-2.1,3.3-2.1,5.5c0,1.9,0.8,3.9,2.4,5.9c1.6,2,3.9,4.3,7,6.9l11.9,10.7
			c2.6,2.2,5,4.6,7.4,7.2c2.3,2.6,4.3,5.4,5.9,8.6c1.6,3.2,2.3,6.8,2.3,11c0,5.6-1.3,10.3-3.8,14.1c-2.5,3.8-5.9,6.7-10.2,8.6
			C399.5,143.8,394.8,144.8,389.5,144.8z"/>
		<path d="M458.4,144.4c-6.1,0-11-1-14.5-3c-3.5-2-6-4.9-7.5-8.7c-1.5-3.8-2.2-8.3-2.2-13.6V61.4h-9.7V46.3h9.7v-29h23v29H472v15.1
			h-14.8v55.7c0,3.4,0.7,5.7,2.2,7.1c1.5,1.4,3.6,2.1,6.5,2.1c1.2,0,2.4-0.1,3.6-0.2c1.2-0.1,2.3-0.2,3.4-0.3v17.4
			c-1.9,0.2-4.1,0.5-6.6,0.8C463.9,144.3,461.2,144.4,458.4,144.4z"/>
		<path d="M501.2,144.8c-3.8,0-6.9-1-9.4-2.9c-2.5-2-4.3-4.6-5.4-7.9c-1.1-3.3-1.7-6.8-1.7-10.5V46.3h22.8v72.9
			c0,2.9,0.5,5.2,1.4,6.8c0.9,1.6,2.7,2.4,5.3,2.4c1.7,0,3.4-0.4,5.1-1.3c1.7-0.9,3.4-2,5.1-3.2V46.3h22.8v96.9h-22.8V134
			c-3.2,3.1-6.8,5.7-10.7,7.7C509.8,143.8,505.7,144.8,501.2,144.8z"/>
		<path d="M586.7,144.8c-7.7,0-13.6-2.7-17.5-8.2c-4-5.5-6-14.3-6-26.3V80.5c0-6.7,0.8-12.7,2.3-18.1c1.5-5.4,3.9-9.6,7.3-12.8
			c3.4-3.2,7.9-4.8,13.6-4.8c3.5,0,6.7,0.7,9.6,2.1c3,1.4,5.7,3.2,8.1,5.4V7.4h22.8v135.8h-22.8v-6.9c-2.6,2.6-5.3,4.6-8.2,6.1
			C593,144,589.9,144.8,586.7,144.8z M595.1,129c1.2,0,2.6-0.3,4.2-0.8c1.6-0.6,3.2-1.3,4.9-2.3V63.6c-1.3-0.9-2.8-1.6-4.4-2.3
			c-1.6-0.6-3.2-0.9-4.9-0.9c-3.2,0-5.5,1.5-6.8,4.4c-1.3,3-1.9,6.6-1.9,10.8v36.2c0,3.2,0.2,6.1,0.7,8.7c0.4,2.6,1.3,4.6,2.6,6.1
			C590.8,128.2,592.6,129,595.1,129z"/>
		<path d="M644.9,30.9V12h22.8v18.9H644.9z M644.9,143.3V46.3h22.8v96.9H644.9z"/>
		<path d="M715.2,144.8c-7,0-12.9-1.3-17.4-3.9c-4.6-2.6-8-6.5-10.3-11.5c-2.3-5-3.4-11.1-3.4-18.3V78.5c0-7.2,1.1-13.2,3.4-18.3
			c2.3-5,5.7-8.9,10.3-11.5c4.6-2.6,10.4-3.9,17.4-3.9c7,0,12.9,1.3,17.5,3.9c4.6,2.6,8.1,6.5,10.4,11.5c2.3,5,3.4,11.1,3.4,18.3
			v32.5c0,7.2-1.1,13.2-3.4,18.3c-2.3,5-5.8,8.9-10.4,11.5C728,143.4,722.2,144.8,715.2,144.8z M715.3,129c2.6,0,4.5-0.7,5.7-2.2
			c1.2-1.5,2-3.4,2.3-6c0.3-2.5,0.5-5.3,0.5-8.3V77c0-3-0.2-5.8-0.5-8.2c-0.3-2.5-1.1-4.4-2.3-6c-1.2-1.5-3.1-2.3-5.7-2.3
			c-2.6,0-4.5,0.8-5.7,2.3c-1.2,1.5-2,3.5-2.4,6c-0.4,2.5-0.6,5.2-0.6,8.2v35.6c0,3,0.2,5.8,0.6,8.3c0.4,2.5,1.2,4.5,2.4,6
			C710.8,128.3,712.7,129,715.3,129z"/>
		<g>
			<path d="M265.6,144.8c-4.4,0-8.1-1.1-11.3-3.4c-3.2-2.3-5.6-5.2-7.3-8.7c-1.7-3.5-2.5-7.2-2.5-11c0-6,1.1-11.1,3.4-15.3
				c2.2-4.1,5.2-7.6,9-10.4c3.7-2.8,7.9-5.2,12.6-7.3c4.6-2.1,9.4-3.9,14.3-5.6v-8.4c0-2.8-0.2-5.1-0.6-7c-0.4-1.9-1.1-3.4-2.3-4.4
				c-1.1-1-2.7-1.5-4.9-1.5c-2,0-3.6,0.4-4.8,1.3c-1.2,0.9-2,2.2-2.5,3.8c-0.5,1.6-0.8,3.5-0.8,5.6l-0.3,5.9l-21.8-0.8
				c0.4-11.2,3.2-19.4,8.4-24.7c5.1-5.3,13-8,23.6-8c9.7,0,16.8,2.7,21.3,8c4.5,5.4,6.7,12.6,6.7,21.8v44.8c0,3.6,0.1,6.8,0.3,9.7
				c0.2,2.9,0.4,5.5,0.7,7.9c0.3,2.3,0.5,4.4,0.8,6.2h-20.6c-0.3-2.2-0.7-4.8-1.2-7.6c-0.4-2.8-0.8-4.9-1-6.3
				c-1.1,3.9-3.2,7.5-6.4,10.6C275.2,143.2,271,144.8,265.6,144.8z M258,33.9v-7.1h39.6v7.1H258z M274,127.8c1.5,0,2.8-0.4,4-1.1
				c1.2-0.7,2.3-1.6,3.4-2.6c1-1,1.8-1.9,2.3-2.7v-27c-2.6,1.5-4.9,2.9-7.1,4.4c-2.2,1.5-4.1,3-5.6,4.8c-1.6,1.7-2.8,3.6-3.7,5.6
				c-0.9,2-1.3,4.4-1.3,7c0,3.6,0.7,6.4,2.1,8.5C269.4,126.8,271.4,127.8,274,127.8z"/>
		</g>
	</g>
</g>
</svg>
