<?xml version="1.0" encoding="utf-8"?>
<!-- Generator: Adobe Illustrator 28.1.0, SVG Export Plug-In . SVG Version: 6.00 Build 0)  -->
<svg version="1.1" id="Calque_1" xmlns="http://www.w3.org/2000/svg" xmlns:xlink="http://www.w3.org/1999/xlink" x="0px" y="0px"
	 viewBox="0 0 2284.5 522.8" style="enable-background:new 0 0 2284.5 522.8;" xml:space="preserve">
<style type="text/css">
	.st0{font-family:'Lato-Hairline';}
	.st1{font-size:29.8918px;}
	.st2{fill:none;stroke:#000000;stroke-width:0.2835;stroke-miterlimit:10;}
</style>
<g>
	<path d="M111.6,448.7c-24.8,0-45.2-6.6-61.2-19.9c-16-13.3-27.4-32.6-34.2-58.2l51.5-19.9c4.1,16,9.5,28.2,16.3,36.7
		c6.8,8.5,15.6,12.8,26.5,12.8c8.2,0,14.3-2,18.4-6.1c4.1-4.1,6.1-9.7,6.1-16.8c0-8.2-2.5-15.6-7.4-22.2
		c-4.9-6.6-13.3-14.9-25.2-24.7l-35.7-30.1c-12.9-11.2-23.4-22.7-31.4-34.4c-8-11.7-12-26.4-12-44.1c0-16,3.7-29.7,11-41.1
		c7.3-11.4,17.3-20.2,30.1-26.5c12.8-6.3,26.9-9.4,42.6-9.4c24.5,0,44,7.1,58.7,21.2c14.6,14.1,24.1,32.6,28.6,55.3l-46.9,19.4
		c-1.7-8.2-4.2-15.7-7.4-22.7c-3.2-7-7.4-12.7-12.5-17.1c-5.1-4.4-11.2-6.6-18.4-6.6s-12.8,2.2-17.1,6.6c-4.3,4.4-6.4,10-6.4,16.8
		c0,5.8,2.5,11.7,7.4,17.9c4.9,6.1,12,13.1,21.2,20.9l36.2,32.6c7.8,6.8,15.3,14.1,22.4,21.9c7.1,7.8,13.1,16.6,17.9,26.3
		c4.8,9.7,7.1,20.8,7.1,33.4c0,17-3.8,31.3-11.5,42.9c-7.7,11.6-18,20.3-31.1,26.3C142.1,445.7,127.5,448.7,111.6,448.7z"/>
	<path d="M324.8,448.7c-21.4,0-39.1-4-53.1-12c-13.9-8-24.4-19.6-31.4-34.9c-7-15.3-10.5-33.8-10.5-55.6v-99
		c0-21.8,3.5-40.3,10.5-55.6c7-15.3,17.4-26.9,31.4-34.9c13.9-8,31.6-12,53.1-12c21.4,0,39.2,4,53.3,12c14.1,8,24.7,19.6,31.6,34.9
		c7,15.3,10.5,33.8,10.5,55.6v99c0,21.8-3.5,40.3-10.5,55.6c-7,15.3-17.5,27-31.6,34.9C364,444.7,346.2,448.7,324.8,448.7z
		 M325.3,400.8c7.8,0,13.6-2.2,17.3-6.6c3.7-4.4,6.1-10.5,7.1-18.1c1-7.7,1.5-16.1,1.5-25.2V242.6c0-9.2-0.5-17.5-1.5-25
		c-1-7.5-3.4-13.5-7.1-18.1c-3.7-4.6-9.5-6.9-17.3-6.9c-7.8,0-13.6,2.3-17.3,6.9c-3.7,4.6-6.2,10.6-7.4,18.1
		c-1.2,7.5-1.8,15.8-1.8,25v108.1c0,9.2,0.6,17.6,1.8,25.2c1.2,7.6,3.7,13.7,7.4,18.1C311.7,398.6,317.5,400.8,325.3,400.8z"/>
	<path d="M472.2,444.1V30.9h68.9v413.2H472.2z"/>
	<path d="M681.8,447.7c-18.7,0-33.4-3.1-44.1-9.2c-10.7-6.1-18.3-15-22.7-26.5c-4.4-11.6-6.6-25.3-6.6-41.3V195.2h-29.6v-45.9h29.6
		V61h69.9v88.2h44.9v45.9h-44.9v169.4c0,10.2,2.2,17.4,6.6,21.7c4.4,4.2,11,6.4,19.9,6.4c3.7,0,7.4-0.2,11-0.5
		c3.6-0.3,7.1-0.7,10.5-1v53.1c-5.8,0.7-12.5,1.4-20.2,2.3C698.4,447.3,690.3,447.7,681.8,447.7z"/>
	<path d="M1190.4,448.7c-24.8,0-45.2-6.6-61.2-19.9c-16-13.3-27.4-32.6-34.2-58.2l51.5-19.9c4.1,16,9.5,28.2,16.3,36.7
		c6.8,8.5,15.6,12.8,26.5,12.8c8.2,0,14.3-2,18.4-6.1c4.1-4.1,6.1-9.7,6.1-16.8c0-8.2-2.5-15.6-7.4-22.2
		c-4.9-6.6-13.3-14.9-25.2-24.7l-35.7-30.1c-12.9-11.2-23.4-22.7-31.4-34.4c-8-11.7-12-26.4-12-44.1c0-16,3.7-29.7,11-41.1
		c7.3-11.4,17.3-20.2,30.1-26.5c12.8-6.3,26.9-9.4,42.6-9.4c24.5,0,44,7.1,58.7,21.2c14.6,14.1,24.1,32.6,28.6,55.3l-46.9,19.4
		c-1.7-8.2-4.2-15.7-7.4-22.7c-3.2-7-7.4-12.7-12.5-17.1c-5.1-4.4-11.2-6.6-18.4-6.6c-7.1,0-12.8,2.2-17.1,6.6
		c-4.3,4.4-6.4,10-6.4,16.8c0,5.8,2.5,11.7,7.4,17.9c4.9,6.1,12,13.1,21.2,20.9l36.2,32.6c7.8,6.8,15.3,14.1,22.4,21.9
		c7.1,7.8,13.1,16.6,17.9,26.3c4.8,9.7,7.1,20.8,7.1,33.4c0,17-3.8,31.3-11.5,42.9c-7.7,11.6-18,20.3-31.1,26.3
		C1220.9,445.7,1206.4,448.7,1190.4,448.7z"/>
	<path d="M1400.1,447.7c-18.7,0-33.4-3.1-44.1-9.2c-10.7-6.1-18.3-15-22.7-26.5c-4.4-11.6-6.6-25.3-6.6-41.3V195.2H1297v-45.9h29.6
		V61h69.9v88.2h44.9v45.9h-44.9v169.4c0,10.2,2.2,17.4,6.6,21.7c4.4,4.2,11,6.4,19.9,6.4c3.7,0,7.4-0.2,11-0.5
		c3.6-0.3,7.1-0.7,10.5-1v53.1c-5.8,0.7-12.5,1.4-20.2,2.3C1416.6,447.3,1408.5,447.7,1400.1,447.7z"/>
	<path d="M1530.1,448.7c-11.6,0-21.1-3-28.6-8.9c-7.5-5.9-12.9-13.9-16.3-24c-3.4-10-5.1-20.7-5.1-31.9V149.3h69.4v221.9
		c0,8.8,1.4,15.7,4.3,20.7c2.9,4.9,8.2,7.4,16.1,7.4c5.1,0,10.3-1.4,15.6-4.1c5.3-2.7,10.5-6,15.6-9.7V149.3h69.4v294.8H1601v-28.1
		c-9.9,9.5-20.7,17.3-32.6,23.5C1556.5,445.6,1543.7,448.7,1530.1,448.7z"/>
	<path d="M1790.3,448.7c-23.5,0-41.2-8.3-53.3-25c-12.1-16.7-18.1-43.4-18.1-80.1v-90.3c0-20.4,2.3-38.8,6.9-55.1
		c4.6-16.3,12-29.3,22.2-39c10.2-9.7,24-14.5,41.3-14.5c10.5,0,20.3,2.1,29.3,6.4c9,4.3,17.3,9.8,24.7,16.6V30.9h69.4v413.2h-69.4
		v-20.9c-7.8,7.8-16.2,14-25,18.6C1809.5,446.4,1800.1,448.7,1790.3,448.7z M1815.8,400.8c3.7,0,8-0.8,12.8-2.5
		c4.8-1.7,9.7-4.1,14.8-7.1V201.8c-4.1-2.7-8.5-5-13.3-6.9c-4.8-1.9-9.7-2.8-14.8-2.8c-9.9,0-16.8,4.5-20.7,13.5
		c-3.9,9-5.9,20-5.9,32.9v110.2c0,9.9,0.7,18.7,2,26.5c1.4,7.8,4,14,7.9,18.6C1802.6,398.5,1808.3,400.8,1815.8,400.8z"/>
	<path d="M1967.3,102.3V44.7h69.4v57.6H1967.3z M1967.3,444.1V149.3h69.4v294.8H1967.3z"/>
	<path d="M2181,448.7c-21.4,0-39.1-4-53.1-12c-13.9-8-24.4-19.6-31.4-34.9c-7-15.3-10.5-33.8-10.5-55.6v-99
		c0-21.8,3.5-40.3,10.5-55.6c7-15.3,17.4-26.9,31.4-34.9c13.9-8,31.6-12,53.1-12c21.4,0,39.2,4,53.3,12c14.1,8,24.7,19.6,31.6,34.9
		c7,15.3,10.5,33.8,10.5,55.6v99c0,21.8-3.5,40.3-10.5,55.6c-7,15.3-17.5,27-31.6,34.9C2220.2,444.7,2202.4,448.7,2181,448.7z
		 M2181.5,400.8c7.8,0,13.6-2.2,17.3-6.6c3.7-4.4,6.1-10.5,7.1-18.1c1-7.7,1.5-16.1,1.5-25.2V242.6c0-9.2-0.5-17.5-1.5-25
		c-1-7.5-3.4-13.5-7.1-18.1c-3.7-4.6-9.5-6.9-17.3-6.9c-7.8,0-13.6,2.3-17.3,6.9c-3.7,4.6-6.2,10.6-7.4,18.1
		c-1.2,7.5-1.8,15.8-1.8,25v108.1c0,9.2,0.6,17.6,1.8,25.2c1.2,7.6,3.7,13.7,7.4,18.1C2167.9,398.6,2173.7,400.8,2181.5,400.8z"/>
	<g>
		<path d="M813.4,448.7c-13.3,0-24.7-3.5-34.4-10.5c-9.7-7-17.1-15.8-22.2-26.5c-5.1-10.7-7.7-21.8-7.7-33.4
			c0-18.4,3.4-33.8,10.2-46.4c6.8-12.6,15.9-23.1,27.3-31.6c11.4-8.5,24.1-15.9,38.3-22.2c14.1-6.3,28.6-12,43.6-17.1v-25.5
			c0-8.5-0.6-15.6-1.8-21.4c-1.2-5.8-3.5-10.2-6.9-13.3c-3.4-3.1-8.3-4.6-14.8-4.6c-6.1,0-11,1.4-14.5,4.1
			c-3.6,2.7-6.1,6.5-7.7,11.5c-1.5,4.9-2.3,10.6-2.3,17.1l-1,17.9l-66.3-2.6c1.4-34,9.9-59.1,25.5-75.2
			c15.6-16.1,39.6-24.2,71.9-24.2c29.6,0,51.2,8.2,64.8,24.5c13.6,16.3,20.4,38.4,20.4,66.3v136.2c0,10.9,0.3,20.7,0.8,29.6
			c0.5,8.8,1.2,16.8,2,24c0.8,7.1,1.6,13.4,2.3,18.9h-62.7c-1-6.8-2.2-14.5-3.6-23.2c-1.4-8.7-2.4-15-3.1-19.1
			c-3.4,11.9-9.9,22.7-19.4,32.4C842.7,443.9,829.8,448.7,813.4,448.7z M790.5,111.4V89.8h120.4v21.6H790.5z M838.9,397.2
			c4.4,0,8.5-1.1,12.2-3.3c3.7-2.2,7.1-4.9,10.2-7.9c3.1-3.1,5.4-5.8,7.1-8.2v-82.1c-7.8,4.4-15,8.9-21.7,13.3
			c-6.6,4.4-12.3,9.3-17.1,14.5c-4.8,5.3-8.5,11-11.2,17.1c-2.7,6.1-4.1,13.3-4.1,21.4c0,10.9,2.1,19.5,6.4,25.8
			C825.1,394,831.1,397.2,838.9,397.2z"/>
	</g>
</g>
<g>
	<g>
		<g>
			<text transform="matrix(1 0 0 1 279.6817 499.2307)" class="st0 st1">fais avec amour par Marion &amp; Cloé</text>
			<text transform="matrix(1 0 0 1 34.6432 498.8719)" class="st0 st1">2024. solta studio</text>
		</g>
	</g>
	<line class="st2" x1="163.3" y1="481.1" x2="172.6" y2="481.1"/>
</g>
</svg>
