<?xml version="1.0" encoding="utf-8"?>
<!-- Generator: Adobe Illustrator 28.1.0, SVG Export Plug-In . SVG Version: 6.00 Build 0)  -->
<svg version="1.1" id="Calque_1" xmlns="http://www.w3.org/2000/svg" xmlns:xlink="http://www.w3.org/1999/xlink" x="0px" y="0px"
	 viewBox="0 0 841.9 595.3" style="enable-background:new 0 0 841.9 595.3;" xml:space="preserve">
<style type="text/css">
	.st0{font-family:'Lato-Regular';}
	.st1{font-size:41.8756px;}
</style>
<g>
	<g>
		<g>
			<text transform="matrix(1 0 0 1 214.0569 396.4688)" class="st0 st1">architecture intérieure</text>
		</g>
	</g>
	<g>
		<path d="M80.8,348.5c-8.2,0-14.9-2.2-20.1-6.5c-5.3-4.4-9-10.7-11.2-19.1l16.9-6.5c1.3,5.3,3.1,9.3,5.4,12.1
			c2.2,2.8,5.1,4.2,8.7,4.2c2.7,0,4.7-0.7,6-2s2-3.2,2-5.5c0-2.7-0.8-5.1-2.4-7.3c-1.6-2.2-4.4-4.9-8.3-8.1L66,299.7
			c-4.2-3.7-7.7-7.5-10.3-11.3c-2.6-3.9-3.9-8.7-3.9-14.5c0-5.3,1.2-9.8,3.6-13.5c2.4-3.7,5.7-6.7,9.9-8.7c4.2-2.1,8.9-3.1,14-3.1
			c8,0,14.5,2.3,19.3,7c4.8,4.6,7.9,10.7,9.4,18.2l-15.4,6.4c-0.6-2.7-1.4-5.2-2.4-7.5c-1.1-2.3-2.4-4.2-4.1-5.6
			c-1.7-1.5-3.7-2.2-6-2.2s-4.2,0.7-5.6,2.2s-2.1,3.3-2.1,5.5c0,1.9,0.8,3.9,2.4,5.9s3.9,4.3,7,6.9L93.5,296c2.6,2.2,5,4.6,7.4,7.2
			c2.3,2.6,4.3,5.4,5.9,8.6s2.3,6.8,2.3,11c0,5.6-1.3,10.3-3.8,14.1c-2.5,3.8-5.9,6.7-10.2,8.6C90.8,347.5,86.1,348.5,80.8,348.5z"
			/>
		<path d="M150.9,348.5c-7,0-12.9-1.3-17.4-3.9c-4.6-2.6-8-6.5-10.3-11.5s-3.4-11.1-3.4-18.3v-32.5c0-7.2,1.1-13.2,3.4-18.3
			c2.3-5,5.7-8.9,10.3-11.5s10.4-3.9,17.4-3.9s12.9,1.3,17.5,3.9c4.6,2.6,8.1,6.5,10.4,11.5c2.3,5,3.4,11.1,3.4,18.3v32.5
			c0,7.2-1.1,13.2-3.4,18.3c-2.3,5-5.8,8.9-10.4,11.5S157.9,348.5,150.9,348.5z M151.1,332.8c2.6,0,4.5-0.7,5.7-2.2s2-3.4,2.3-6
			c0.3-2.5,0.5-5.3,0.5-8.3v-35.6c0-3-0.2-5.8-0.5-8.2c-0.3-2.5-1.1-4.4-2.3-6c-1.2-1.5-3.1-2.3-5.7-2.3c-2.6,0-4.5,0.8-5.7,2.3
			s-2,3.5-2.4,6s-0.6,5.2-0.6,8.2v35.6c0,3,0.2,5.8,0.6,8.3c0.4,2.5,1.2,4.5,2.4,6C146.6,332,148.5,332.8,151.1,332.8z"/>
		<path d="M199.4,347V211.2H222V347H199.4z"/>
		<path d="M268.3,348.2c-6.1,0-11-1-14.5-3s-6-4.9-7.5-8.7c-1.5-3.8-2.2-8.3-2.2-13.6v-57.7h-9.7v-15.1h9.7v-29h23v29h14.8v15.1
			h-14.8v55.7c0,3.4,0.7,5.7,2.2,7.1s3.6,2.1,6.5,2.1c1.2,0,2.4-0.1,3.6-0.2s2.3-0.2,3.4-0.3V347c-1.9,0.2-4.1,0.5-6.6,0.8
			C273.7,348,271.1,348.2,268.3,348.2z"/>
		<path d="M435.5,348.5c-8.2,0-14.9-2.2-20.1-6.5c-5.3-4.4-9-10.7-11.2-19.1l16.9-6.5c1.3,5.3,3.1,9.3,5.4,12.1
			c2.2,2.8,5.1,4.2,8.7,4.2c2.7,0,4.7-0.7,6-2s2-3.2,2-5.5c0-2.7-0.8-5.1-2.4-7.3c-1.6-2.2-4.4-4.9-8.3-8.1l-11.7-9.9
			c-4.2-3.7-7.7-7.5-10.3-11.3c-2.6-3.9-3.9-8.7-3.9-14.5c0-5.3,1.2-9.8,3.6-13.5s5.7-6.7,9.9-8.7c4.2-2.1,8.9-3.1,14-3.1
			c8,0,14.5,2.3,19.3,7c4.8,4.6,7.9,10.7,9.4,18.2l-15.4,6.4c-0.6-2.7-1.4-5.2-2.4-7.5c-1.1-2.3-2.4-4.2-4.1-5.6
			c-1.7-1.5-3.7-2.2-6-2.2s-4.2,0.7-5.6,2.2s-2.1,3.3-2.1,5.5c0,1.9,0.8,3.9,2.4,5.9s3.9,4.3,7,6.9l11.9,10.7c2.6,2.2,5,4.6,7.4,7.2
			c2.3,2.6,4.3,5.4,5.9,8.6s2.3,6.8,2.3,11c0,5.6-1.3,10.3-3.8,14.1c-2.5,3.8-5.9,6.7-10.2,8.6C445.5,347.5,440.7,348.5,435.5,348.5
			z"/>
		<path d="M504.4,348.2c-6.1,0-11-1-14.5-3s-6-4.9-7.5-8.7c-1.5-3.8-2.2-8.3-2.2-13.6v-57.7h-9.7v-15.1h9.7v-29h23v29H518v15.1
			h-14.8v55.7c0,3.4,0.7,5.7,2.2,7.1s3.6,2.1,6.5,2.1c1.2,0,2.4-0.1,3.6-0.2c1.2-0.1,2.3-0.2,3.4-0.3V347c-1.9,0.2-4.1,0.5-6.6,0.8
			C509.8,348,507.2,348.2,504.4,348.2z"/>
		<path d="M547.1,348.5c-3.8,0-6.9-1-9.4-2.9c-2.5-2-4.3-4.6-5.4-7.9c-1.1-3.3-1.7-6.8-1.7-10.5v-77.1h22.8V323
			c0,2.9,0.5,5.2,1.4,6.8c0.9,1.6,2.7,2.4,5.3,2.4c1.7,0,3.4-0.4,5.1-1.3c1.7-0.9,3.4-2,5.1-3.2v-77.6h22.8V347h-22.8v-9.2
			c-3.2,3.1-6.8,5.7-10.7,7.7C555.8,347.5,551.6,348.5,547.1,348.5z"/>
		<path d="M632.7,348.5c-7.7,0-13.6-2.7-17.5-8.2c-4-5.5-6-14.3-6-26.3v-29.7c0-6.7,0.8-12.7,2.3-18.1s3.9-9.6,7.3-12.8
			c3.4-3.2,7.9-4.8,13.6-4.8c3.5,0,6.7,0.7,9.6,2.1c3,1.4,5.7,3.2,8.1,5.4v-44.9h22.8V347h-22.8v-6.9c-2.6,2.6-5.3,4.6-8.2,6.1
			C639,347.8,635.9,348.5,632.7,348.5z M641,332.8c1.2,0,2.6-0.3,4.2-0.8c1.6-0.6,3.2-1.3,4.9-2.3v-62.2c-1.3-0.9-2.8-1.6-4.4-2.3
			c-1.6-0.6-3.2-0.9-4.9-0.9c-3.2,0-5.5,1.5-6.8,4.4c-1.3,3-1.9,6.6-1.9,10.8v36.2c0,3.2,0.2,6.1,0.7,8.7c0.4,2.6,1.3,4.6,2.6,6.1
			C636.7,332,638.6,332.8,641,332.8z"/>
		<path d="M690.8,234.7v-18.9h22.8v18.9H690.8z M690.8,347v-96.9h22.8V347H690.8z"/>
		<path d="M761.1,348.5c-7,0-12.9-1.3-17.4-3.9c-4.6-2.6-8-6.5-10.3-11.5S730,322,730,314.8v-32.5c0-7.2,1.1-13.2,3.4-18.3
			c2.3-5,5.7-8.9,10.3-11.5s10.4-3.9,17.4-3.9s12.9,1.3,17.5,3.9c4.6,2.6,8.1,6.5,10.4,11.5c2.3,5,3.4,11.1,3.4,18.3v32.5
			c0,7.2-1.1,13.2-3.4,18.3c-2.3,5-5.8,8.9-10.4,11.5C774,347.2,768.1,348.5,761.1,348.5z M761.3,332.8c2.6,0,4.5-0.7,5.7-2.2
			s2-3.4,2.3-6c0.3-2.5,0.5-5.3,0.5-8.3v-35.6c0-3-0.2-5.8-0.5-8.2c-0.3-2.5-1.1-4.4-2.3-6c-1.2-1.5-3.1-2.3-5.7-2.3
			c-2.6,0-4.5,0.8-5.7,2.3s-2,3.5-2.4,6s-0.6,5.2-0.6,8.2v35.6c0,3,0.2,5.8,0.6,8.3c0.4,2.5,1.2,4.5,2.4,6
			C756.8,332,758.7,332.8,761.3,332.8z"/>
		<g>
			<path d="M311.5,348.5c-4.4,0-8.1-1.1-11.3-3.4c-3.2-2.3-5.6-5.2-7.3-8.7c-1.7-3.5-2.5-7.2-2.5-11c0-6,1.1-11.1,3.4-15.3
				c2.2-4.1,5.2-7.6,9-10.4c3.7-2.8,7.9-5.2,12.6-7.3c4.6-2.1,9.4-3.9,14.3-5.6v-8.4c0-2.8-0.2-5.1-0.6-7s-1.1-3.4-2.3-4.4
				c-1.1-1-2.7-1.5-4.9-1.5c-2,0-3.6,0.4-4.8,1.3c-1.2,0.9-2,2.2-2.5,3.8c-0.5,1.6-0.8,3.5-0.8,5.6l-0.3,5.9l-21.8-0.8
				c0.4-11.2,3.2-19.4,8.4-24.7c5.1-5.3,13-8,23.6-8c9.7,0,16.8,2.7,21.3,8c4.5,5.4,6.7,12.6,6.7,21.8v44.8c0,3.6,0.1,6.8,0.3,9.7
				c0.2,2.9,0.4,5.5,0.7,7.9c0.3,2.3,0.5,4.4,0.8,6.2h-20.6c-0.3-2.2-0.7-4.8-1.2-7.6c-0.4-2.8-0.8-4.9-1-6.3
				c-1.1,3.9-3.2,7.5-6.4,10.6C321.1,346.9,316.9,348.5,311.5,348.5z M304,237.6v-7.1h39.6v7.1H304z M319.9,331.6
				c1.5,0,2.8-0.4,4-1.1s2.3-1.6,3.4-2.6c1-1,1.8-1.9,2.3-2.7v-27c-2.6,1.5-4.9,2.9-7.1,4.4s-4.1,3-5.6,4.8
				c-1.6,1.7-2.8,3.6-3.7,5.6c-0.9,2-1.3,4.4-1.3,7c0,3.6,0.7,6.4,2.1,8.5C315.4,330.6,317.3,331.6,319.9,331.6z"/>
		</g>
	</g>
</g>
</svg>
